<svg width="748" height="274" viewBox="0 0 748 274" fill="none" xmlns="http://www.w3.org/2000/svg">
<path fill-rule="evenodd" clip-rule="evenodd" d="M689.249 -2.5681e-06C721.696 -1.14978e-06 748 26.2416 748 58.6122L748 81.8271C748 83.4766 747.932 85.1102 747.798 86.7252C743.093 190.947 656.902 274 551.277 274L58.7512 274C26.3038 274 -1.08299e-05 247.758 -9.4149e-06 215.388C-7.99993e-06 183.017 26.3038 156.776 58.7512 156.776L551.277 156.776C595.029 156.776 630.498 121.39 630.498 77.7464L630.498 58.6122C630.498 26.2416 656.801 -3.98642e-06 689.249 -2.5681e-06Z" fill="#BFCCFF" fill-opacity="0.6"/>
</svg>
