<svg width="498" height="849" viewBox="0 0 498 849" fill="none" xmlns="http://www.w3.org/2000/svg">
<path fill-rule="evenodd" clip-rule="evenodd" d="M431.393 0C468.16 0 497.965 29.8129 497.965 66.589V267.738C497.965 390.875 398.165 490.706 275.057 490.706H222.905C173.333 490.706 133.144 530.905 133.144 580.493V781.644C133.144 818.42 103.338 848.233 66.5719 848.233C29.8052 848.233 0 818.42 0 781.644V580.493C0 460.775 94.3328 363.089 212.707 357.757C214.541 357.605 216.397 357.528 218.27 357.528H275.057C324.629 357.528 364.821 317.326 364.821 267.738V66.589C364.821 29.8129 394.627 0 431.393 0Z" fill="#FBDAEC"/>
</svg>
